<mxfile host="app.diagrams.net" agent="Mozilla/5.0 (Windows NT 10.0; Win64; x64) AppleWebKit/537.36 (KHTML, like Gecko) Chrome/132.0.0.0 Safari/537.36" version="26.0.10">
  <diagram name="Página-1" id="ZflPwfppheDDWV4Uafuk">
    <mxGraphModel dx="1059" dy="1718" grid="1" gridSize="10" guides="1" tooltips="1" connect="1" arrows="1" fold="1" page="1" pageScale="1" pageWidth="827" pageHeight="1169" math="0" shadow="0">
      <root>
        <mxCell id="0" />
        <mxCell id="1" parent="0" />
        <mxCell id="PrWVqDdxhx1Ii_EH9CQh-7" style="edgeStyle=orthogonalEdgeStyle;rounded=0;orthogonalLoop=1;jettySize=auto;html=1;entryX=0.5;entryY=0;entryDx=0;entryDy=0;" edge="1" parent="1" source="PrWVqDdxhx1Ii_EH9CQh-1" target="PrWVqDdxhx1Ii_EH9CQh-5">
          <mxGeometry relative="1" as="geometry" />
        </mxCell>
        <mxCell id="PrWVqDdxhx1Ii_EH9CQh-1" value="Banco" style="rounded=0;whiteSpace=wrap;html=1;" vertex="1" parent="1">
          <mxGeometry x="330" y="60" width="100" height="30" as="geometry" />
        </mxCell>
        <mxCell id="PrWVqDdxhx1Ii_EH9CQh-6" style="edgeStyle=orthogonalEdgeStyle;rounded=0;orthogonalLoop=1;jettySize=auto;html=1;entryX=0;entryY=0.5;entryDx=0;entryDy=0;" edge="1" parent="1" source="PrWVqDdxhx1Ii_EH9CQh-3" target="PrWVqDdxhx1Ii_EH9CQh-5">
          <mxGeometry relative="1" as="geometry" />
        </mxCell>
        <mxCell id="PrWVqDdxhx1Ii_EH9CQh-3" value="Pessoa" style="rounded=0;whiteSpace=wrap;html=1;" vertex="1" parent="1">
          <mxGeometry x="130" y="190" width="90" height="30" as="geometry" />
        </mxCell>
        <mxCell id="PrWVqDdxhx1Ii_EH9CQh-8" style="edgeStyle=orthogonalEdgeStyle;rounded=0;orthogonalLoop=1;jettySize=auto;html=1;entryX=1;entryY=0.5;entryDx=0;entryDy=0;" edge="1" parent="1" source="PrWVqDdxhx1Ii_EH9CQh-4" target="PrWVqDdxhx1Ii_EH9CQh-5">
          <mxGeometry relative="1" as="geometry" />
        </mxCell>
        <mxCell id="PrWVqDdxhx1Ii_EH9CQh-4" value="Company" style="rounded=0;whiteSpace=wrap;html=1;" vertex="1" parent="1">
          <mxGeometry x="540" y="190" width="100" height="30" as="geometry" />
        </mxCell>
        <mxCell id="PrWVqDdxhx1Ii_EH9CQh-12" style="edgeStyle=orthogonalEdgeStyle;rounded=0;orthogonalLoop=1;jettySize=auto;html=1;entryX=0.5;entryY=0;entryDx=0;entryDy=0;" edge="1" parent="1" source="PrWVqDdxhx1Ii_EH9CQh-5" target="PrWVqDdxhx1Ii_EH9CQh-9">
          <mxGeometry relative="1" as="geometry" />
        </mxCell>
        <mxCell id="PrWVqDdxhx1Ii_EH9CQh-5" value="U" style="ellipse;whiteSpace=wrap;html=1;aspect=fixed;" vertex="1" parent="1">
          <mxGeometry x="380" y="180" width="40" height="40" as="geometry" />
        </mxCell>
        <mxCell id="PrWVqDdxhx1Ii_EH9CQh-9" value="owner" style="rounded=0;whiteSpace=wrap;html=1;" vertex="1" parent="1">
          <mxGeometry x="350" y="310" width="90" height="30" as="geometry" />
        </mxCell>
        <mxCell id="PrWVqDdxhx1Ii_EH9CQh-18" style="edgeStyle=orthogonalEdgeStyle;rounded=0;orthogonalLoop=1;jettySize=auto;html=1;entryX=0.5;entryY=0;entryDx=0;entryDy=0;" edge="1" parent="1" source="PrWVqDdxhx1Ii_EH9CQh-13" target="PrWVqDdxhx1Ii_EH9CQh-3">
          <mxGeometry relative="1" as="geometry" />
        </mxCell>
        <mxCell id="PrWVqDdxhx1Ii_EH9CQh-13" value="Licença" style="ellipse;whiteSpace=wrap;html=1;" vertex="1" parent="1">
          <mxGeometry x="90" y="30" width="90" height="50" as="geometry" />
        </mxCell>
        <mxCell id="PrWVqDdxhx1Ii_EH9CQh-17" style="edgeStyle=orthogonalEdgeStyle;rounded=0;orthogonalLoop=1;jettySize=auto;html=1;entryX=0;entryY=0.5;entryDx=0;entryDy=0;" edge="1" parent="1" source="PrWVqDdxhx1Ii_EH9CQh-14" target="PrWVqDdxhx1Ii_EH9CQh-3">
          <mxGeometry relative="1" as="geometry" />
        </mxCell>
        <mxCell id="PrWVqDdxhx1Ii_EH9CQh-14" value="CPF" style="ellipse;whiteSpace=wrap;html=1;" vertex="1" parent="1">
          <mxGeometry y="70" width="80" height="40" as="geometry" />
        </mxCell>
        <mxCell id="PrWVqDdxhx1Ii_EH9CQh-19" style="edgeStyle=orthogonalEdgeStyle;rounded=0;orthogonalLoop=1;jettySize=auto;html=1;entryX=0.75;entryY=0;entryDx=0;entryDy=0;" edge="1" parent="1" source="PrWVqDdxhx1Ii_EH9CQh-15" target="PrWVqDdxhx1Ii_EH9CQh-3">
          <mxGeometry relative="1" as="geometry" />
        </mxCell>
        <mxCell id="PrWVqDdxhx1Ii_EH9CQh-15" value="Nome" style="ellipse;whiteSpace=wrap;html=1;" vertex="1" parent="1">
          <mxGeometry x="210" y="60" width="90" height="50" as="geometry" />
        </mxCell>
        <mxCell id="PrWVqDdxhx1Ii_EH9CQh-16" value="Licença" style="ellipse;whiteSpace=wrap;html=1;" vertex="1" parent="1">
          <mxGeometry x="50" y="270" width="90" height="50" as="geometry" />
        </mxCell>
        <mxCell id="PrWVqDdxhx1Ii_EH9CQh-20" style="edgeStyle=orthogonalEdgeStyle;rounded=0;orthogonalLoop=1;jettySize=auto;html=1;exitX=0.5;exitY=0;exitDx=0;exitDy=0;entryX=0.389;entryY=1.144;entryDx=0;entryDy=0;entryPerimeter=0;" edge="1" parent="1" source="PrWVqDdxhx1Ii_EH9CQh-16" target="PrWVqDdxhx1Ii_EH9CQh-3">
          <mxGeometry relative="1" as="geometry" />
        </mxCell>
        <mxCell id="PrWVqDdxhx1Ii_EH9CQh-21" value="Bnome" style="ellipse;whiteSpace=wrap;html=1;" vertex="1" parent="1">
          <mxGeometry x="324" y="-50" width="90" height="50" as="geometry" />
        </mxCell>
        <mxCell id="PrWVqDdxhx1Ii_EH9CQh-24" style="edgeStyle=orthogonalEdgeStyle;rounded=0;orthogonalLoop=1;jettySize=auto;html=1;entryX=1;entryY=0.5;entryDx=0;entryDy=0;" edge="1" parent="1" source="PrWVqDdxhx1Ii_EH9CQh-22" target="PrWVqDdxhx1Ii_EH9CQh-1">
          <mxGeometry relative="1" as="geometry" />
        </mxCell>
        <mxCell id="PrWVqDdxhx1Ii_EH9CQh-22" value="Endereço" style="ellipse;whiteSpace=wrap;html=1;" vertex="1" parent="1">
          <mxGeometry x="480" y="-40" width="90" height="50" as="geometry" />
        </mxCell>
        <mxCell id="PrWVqDdxhx1Ii_EH9CQh-23" style="edgeStyle=orthogonalEdgeStyle;rounded=0;orthogonalLoop=1;jettySize=auto;html=1;entryX=0.394;entryY=0.141;entryDx=0;entryDy=0;entryPerimeter=0;" edge="1" parent="1" source="PrWVqDdxhx1Ii_EH9CQh-21" target="PrWVqDdxhx1Ii_EH9CQh-1">
          <mxGeometry relative="1" as="geometry" />
        </mxCell>
        <mxCell id="PrWVqDdxhx1Ii_EH9CQh-28" style="edgeStyle=orthogonalEdgeStyle;rounded=0;orthogonalLoop=1;jettySize=auto;html=1;entryX=1;entryY=0.75;entryDx=0;entryDy=0;" edge="1" parent="1" source="PrWVqDdxhx1Ii_EH9CQh-25" target="PrWVqDdxhx1Ii_EH9CQh-4">
          <mxGeometry relative="1" as="geometry" />
        </mxCell>
        <mxCell id="PrWVqDdxhx1Ii_EH9CQh-25" value="Cendereço" style="ellipse;whiteSpace=wrap;html=1;" vertex="1" parent="1">
          <mxGeometry x="700" y="170" width="90" height="50" as="geometry" />
        </mxCell>
        <mxCell id="PrWVqDdxhx1Ii_EH9CQh-27" style="edgeStyle=orthogonalEdgeStyle;rounded=0;orthogonalLoop=1;jettySize=auto;html=1;entryX=0.5;entryY=0;entryDx=0;entryDy=0;" edge="1" parent="1" source="PrWVqDdxhx1Ii_EH9CQh-26" target="PrWVqDdxhx1Ii_EH9CQh-4">
          <mxGeometry relative="1" as="geometry" />
        </mxCell>
        <mxCell id="PrWVqDdxhx1Ii_EH9CQh-26" value="Cnome" style="ellipse;whiteSpace=wrap;html=1;" vertex="1" parent="1">
          <mxGeometry x="580" y="80" width="90" height="50" as="geometry" />
        </mxCell>
      </root>
    </mxGraphModel>
  </diagram>
</mxfile>
